<svg width="20" height="20" viewBox="0 0 20 20" fill="none" xmlns="http://www.w3.org/2000/svg">
<path d="M9.99197 0C4.48027 0 0 4.48387 0 10C0 11.6935 0.418892 13.3549 1.24081 14.8226L0.386849 17.9517C0.241804 18.4517 0.38666 18.9678 0.75733 19.3388C1.128 19.7097 1.64397 19.855 2.14357 19.7259L5.39889 18.871C6.8171 19.6129 8.39642 20 10.008 20C15.5197 20 20 15.5161 20 10C20 7.32258 18.9686 4.82245 17.0831 2.93536C15.1814 1.04826 12.6672 0 9.99197 0ZM9.99197 0.967742C12.4094 0.967742 14.6817 1.90329 16.3739 3.61297C18.0822 5.32264 19.0331 7.59677 19.017 10C19.017 14.9839 14.9718 19.0323 9.99197 19.0323C8.49318 19.0323 6.99426 18.645 5.67274 17.9354C5.60827 17.9031 5.52794 17.8711 5.44736 17.8711C5.39901 17.8711 5.36666 17.871 5.31831 17.8872L1.88546 18.7903C1.64371 18.8548 1.48281 18.7257 1.41834 18.6612C1.35388 18.5966 1.22482 18.4356 1.28929 18.1937L2.19172 14.8708C2.22396 14.7418 2.20803 14.613 2.14357 14.5001C1.36999 13.1452 0.966965 11.5806 0.966965 10C0.966965 5.01613 5.0121 0.967742 9.99197 0.967742ZM9.99197 2.41935C5.81791 2.41935 2.41741 5.80645 2.41741 10C2.41741 11.3387 2.77209 12.6452 3.43285 13.7903C3.69071 14.2419 3.75505 14.7741 3.62612 15.2741L3.15869 16.9676L4.96388 16.5001C5.12504 16.4517 5.2862 16.4355 5.44736 16.4355C5.76968 16.4355 6.09188 16.5162 6.36585 16.6775C7.47786 17.2581 8.7188 17.5806 9.99197 17.5806C14.166 17.5806 17.5665 14.1774 17.5665 10C17.5665 7.96774 16.7767 6.06439 15.3424 4.62891C13.9242 3.20955 12.0226 2.41935 9.99197 2.41935ZM6.62365 5.59665H7.07502C7.2523 5.59665 7.42939 5.61278 7.60667 5.99987C7.81618 6.46762 8.28354 7.6451 8.33189 7.758C8.39635 7.8709 8.42884 8.016 8.34826 8.17729C8.26768 8.33858 8.23545 8.43536 8.10652 8.58052C7.9937 8.72568 7.84847 8.88722 7.75177 9.00013C7.63896 9.11303 7.5101 9.24206 7.65514 9.484C7.80019 9.72593 8.26743 10.5 8.97653 11.129C9.87903 11.9355 10.6527 12.1937 10.8944 12.3066C11.1362 12.4195 11.2653 12.4033 11.4103 12.242C11.5554 12.0807 12.0065 11.5483 12.1676 11.3064C12.3288 11.0645 12.4901 11.113 12.6996 11.1936C12.9252 11.2743 14.0855 11.8547 14.3273 11.9676C14.569 12.0805 14.73 12.1452 14.7783 12.242C14.8428 12.371 14.843 12.8386 14.6496 13.4032C14.4562 13.9515 13.4892 14.4999 13.038 14.5322C12.6028 14.5645 12.1998 14.7259 10.1852 13.9355C7.76783 12.9839 6.23693 10.4999 6.12411 10.3386C6.0113 10.1774 5.15715 9.04851 5.15715 7.87109C5.15715 6.69367 5.76943 6.12903 5.99506 5.8871C6.22068 5.64516 6.46249 5.59665 6.62365 5.59665Z" fill="white"/>
</svg>
